<?xml version="1.0" encoding="UTF-8"?>
<svg id="_Слой_2" data-name="Слой 2" xmlns="http://www.w3.org/2000/svg" viewBox="0 0 70.11 60.78">
  <defs>
    <style>
      .cls-1 {
        stroke-width: 3px;
      }

      .cls-1, .cls-2 {
        fill: none;
        stroke: #000;
        stroke-miterlimit: 10;
      }

      .cls-2 {
        stroke-width: 2px;
      }
    </style>
  </defs>
  <g id="_Слой_1-2" data-name="Слой 1">
    <path class="cls-1" d="M25.63,1.5h20.99c2.57,0,4.66,2.09,4.66,4.66v4.75c0,.91-.74,1.66-1.66,1.66H22.63c-.91,0-1.66-.74-1.66-1.66V6.16c0-2.57,2.09-4.66,4.66-4.66Z"/>
    <path class="cls-1" d="M51.27,9.91h10.31c2.48,0,4.49,1.18,4.49,2.64v20.65"/>
    <path class="cls-1" d="M6.17,19.31v-6.76c0-1.46,2.01-2.64,4.49-2.64h10.31"/>
    <path class="cls-1" d="M6.17,30.53v26.1c0,1.46,2.01,2.64,4.49,2.64H61.57c2.48,0,4.49-1.18,4.49-2.64v-11.99"/>
    <path class="cls-1" d="M17.66,24.75c-.41,1.14-.71,2.33-.91,3.57-1.7,10.74,5.62,20.83,16.37,22.53,10.74,1.7,20.83-5.62,22.53-16.37,.07-.44,.12-.87,.16-1.3"/>
    <path d="M.32,23.73c3.01,.46,6.05-.09,9.01-.65,6.05-1.11,13.93-3.08,20.01-4.35,10.23-2.11,20.38,3.82,26.98,11.16,1.99,2.07,3.22,4.66,5.55,6.28,1.99,1.54,4.79,2.38,7.98,2.24l.27,.54c-2.97,1.33-6.4,1.38-9.44,.23-3.04-1.11-5.24-3.64-7.55-5.72-5.69-4.94-12.79-9.31-20.53-9.24-9.24,1.08-18.73,3.16-28.07,1.61-1.56-.29-3.13-.71-4.52-1.59l.32-.51H.32Z"/>
    <circle class="cls-2" cx="57.97" cy="19.31" r="2.81"/>
    <path d="M35.45,26.63c-4.69,0-8.5,3.81-8.5,8.5s3.81,8.5,8.5,8.5,8.5-3.81,8.5-8.5-3.81-8.5-8.5-8.5Zm-2.47,8.23l-4.48-.49c.35-3.25,2.94-5.84,6.19-6.19l.49,4.48c-1.16,.13-2.07,1.04-2.2,2.2Z"/>
  </g>
</svg>