<svg width="30" height="20" viewBox="0 0 30 20" fill="none" xmlns="http://www.w3.org/2000/svg">
<path d="M15.0653 19.9966C15.299 19.9777 15.5213 19.8523 15.6964 19.64L29.6266 2.51959L29.6266 2.51992C29.8436 2.27146 29.9772 1.91385 29.9973 1.52836C30.0175 1.14289 29.9223 0.763067 29.7338 0.475153C29.545 0.187214 29.2788 0.016044 28.9963 0.00111454C28.7135 -0.0141452 28.4383 0.127836 28.2337 0.394544L15 16.653L1.76628 0.394544C1.56174 0.127836 1.28651 -0.0141461 1.00372 0.00111454C0.721202 0.0160423 0.45496 0.187214 0.26623 0.475153C0.0777245 0.763092 -0.0175045 1.14293 0.00265698 1.52836C0.0228197 1.91384 0.156431 2.27144 0.373357 2.51992L14.3036 19.6403C14.5123 19.8935 14.7868 20.0218 15.0654 19.997L15.0653 19.9966Z" fill="black"/>
</svg>
