<svg width="20" height="50" viewBox="0 0 20 50" fill="none" xmlns="http://www.w3.org/2000/svg">
<path d="M19.9969 24.8911C19.978 24.5016 19.8526 24.1312 19.6403 23.8393L2.51963 0.622261C2.27116 0.260707 1.91388 0.0380319 1.52839 0.00442934C1.14291 -0.0291753 0.763077 0.12953 0.475159 0.443717C0.187215 0.758308 0.0160421 1.20204 0.00111245 1.67287C-0.0141476 2.14415 0.127836 2.60287 0.394549 2.9438L16.6533 25L0.394551 47.0562C0.127838 47.3971 -0.0141464 47.8558 0.00111449 48.3271C0.0160425 48.798 0.187217 49.2417 0.475161 49.5563C0.763105 49.8705 1.14294 50.0292 1.52839 49.9956C1.91387 49.962 2.27148 49.7393 2.51996 49.3777L19.6407 26.1607C19.8938 25.8129 20.0218 25.3555 19.9969 24.8911Z" fill="white"/>
</svg>
